:SAMPLES-PER-SECOND 30
:FULLY-SPECIFIED
:DEGREES
260
root  -8.58296 47.9353 40.9834 3.9128 -7.00437 2.21849
RightUpLeg  -52.7309 -8.54494 5.13036
RightLeg  105.84 25.9356 -25.8217
RightFoot  -5.37011 0.800744 -11.5874
RightToes  -5.82073e-011 -3.18055e-015 -2.98177e-016
Spine  27.6385 -0.196812 2.91882
Spine1  -4.47943 -0.0672589 -0.00825096
HEad  -34.2988 5.81023 1.53503
LeftShoulder1  -3.88251e-019 9.70628e-020 -3.87848e-018
LeftArm  -31.2272 47.8757 -59.5913
LeftForeArm  -20.1399 -48.1782 11.8978
LeftHand  -3.00175 -11.8443 20.7611
RightShoulder  7.19589 10.449 34.0114
RightArm  6.20608 -44.6419 13.1507
RightForeArm  -14.5364 37.6963 -20.4609
RightHand  -2.50322 6.60895 -23.8896
LeftUpLeg  -67.0155 0.512408 -12.035
LeftLeg  110.268 -22.9135 20.8382
LeftFoot  8.18778 -2.38531 12.7472
LeftToes  5.79026e-011 9.70705e-012 -3.73859e-011
261
root  -8.49276 47.1556 41.2059 4.09876 -6.95441 1.36483
RightUpLeg  -47.5114 -8.73506 5.04444
RightLeg  90.4308 17.8236 -20.1373
RightFoot  0.0899224 0.835363 -7.45856
RightToes  -5.82073e-011 -3.18055e-015 -2.98177e-016
Spine  25.16 -0.471792 4.49373
Spine1  -4.56765 -0.166082 0.40755
HEad  -29.6944 6.14576 0.20344
LeftShoulder1  -3.88251e-019 9.70628e-020 -3.87848e-018
LeftArm  -30.959 50.1578 -66.6675
LeftForeArm  -29.191 -46.7223 10.5377
LeftHand  -2.80059 -11.8314 19.4057
RightShoulder  8.04255 10.8164 37.4512
RightArm  10.4027 -47.6409 14.7283
RightForeArm  -9.4757 40.0743 -22.3477
RightHand  -3.28803 9.82797 -24.5189
LeftUpLeg  -60.3775 0.787611 -8.99149
LeftLeg  97.5724 -16.666 16.3994
LeftFoot  9.2144 -1.57633 8.17886
LeftToes  5.79026e-011 9.70705e-012 -3.73859e-011
262
root  -8.39031 46.0338 41.6099 4.10417 -7.79201 0.384351
RightUpLeg  -40.3866 -9.08592 5.14653
RightLeg  71.2677 13.2132 -10.7005
RightFoot  9.49104 0.584765 -3.09065
RightToes  -5.82073e-011 -3.18055e-015 -2.98177e-016
Spine  22.1911 -0.623851 5.4463
Spine1  -4.0159 -0.496081 1.84393
HEad  -25.663 7.72632 -1.73404
LeftShoulder1  -3.88251e-019 9.70628e-020 -3.87848e-018
LeftArm  -33.8694 54.0073 -71.5113
LeftForeArm  -31.2738 -52.3629 13.0132
LeftHand  -2.04445 -11.1627 14.8522
RightShoulder  8.55486 11.0245 39.4649
RightArm  11.7548 -50.8113 15.5351
RightForeArm  -12.4698 47.8565 -29.2167
RightHand  -4.17187 12.0387 -27.3073
LeftUpLeg  -51.6574 2.27526 -6.26386
LeftLeg  80.8316 -12.1281 14.1436
LeftFoot  13.2982 -0.772229 3.46324
LeftToes  5.79026e-011 9.70705e-012 -3.73859e-011
263
root  -8.29643 44.5724 42.1112 3.8019 -9.53652 0.0385401
RightUpLeg  -32.207 -9.06586 4.87232
RightLeg  49.683 13.647 -3.764
RightFoot  17.9685 0.351171 -1.49457
RightToes  -5.82073e-011 -3.18055e-015 -2.98177e-016
Spine  17.4647 -0.574725 5.48605
Spine1  -1.41739 -0.815515 3.03272
HEad  -21.223 9.35774 -3.39084
LeftShoulder1  -3.88251e-019 9.70628e-020 -3.87848e-018
LeftArm  -35.3499 56.8738 -71.1034
LeftForeArm  -29.499 -60.4103 18.6404
LeftHand  -1.00671 -10.7591 7.7349
RightShoulder  8.24003 10.8864 38.2474
RightArm  15.1115 -52.1974 16.0299
RightForeArm  -16.5075 55.845 -39.9757
RightHand  -3.56453 13.2452 -21.7634
LeftUpLeg  -41.3866 3.88975 -4.13419
LeftLeg  61.8795 -8.12147 12.6843
LeftFoot  18.0257 -0.382043 1.5581
LeftToes  5.79026e-011 9.70705e-012 -3.73859e-011
264
root  -8.25303 42.4531 42.6303 3.33558 -11.9309 0.542608
RightUpLeg  -24.6576 -6.68753 3.48267
RightLeg  33.5295 16.8247 0.0184959
RightFoot  15.7452 0.183047 -0.886182
RightToes  -5.82073e-011 -3.18055e-015 -2.98177e-016
Spine  12.4451 -0.338535 5.46119
Spine1  -0.0311579 -0.299156 1.28514
HEad  -14.8353 9.68433 -3.45578
LeftShoulder1  -3.88251e-019 9.70628e-020 -3.87848e-018
LeftArm  -30.0679 57.3811 -63.2693
LeftForeArm  -33.4299 -67.6077 26.7596
LeftHand  -0.0288105 -10.5721 0.505824
RightShoulder  7.55366 10.5744 35.5669
RightArm  17.6778 -50.7816 15.563
RightForeArm  -16.4677 61.7751 -54.4305
RightHand  -1.47978 14.5346 -8.86257
LeftUpLeg  -30.3633 3.41249 -2.36054
LeftLeg  45.1241 -5.85369 9.37603
LeftFoot  15.4507 -0.0765863 0.379054
LeftToes  5.79026e-011 9.70705e-012 -3.73859e-011
265
root  -8.15993 39.7993 42.9622 2.77398 -15.3148 0.817495
RightUpLeg  -21.9842 -0.167495 1.90755
RightLeg  31.3647 18.3402 0.88013
RightFoot  -0.0690066 -0.015683 -0.0830548
RightToes  -5.82073e-011 -3.18055e-015 -2.98177e-016
Spine  10.7316 0.185802 7.09329
Spine1  -2.63648 1.10785 -2.47524
HEad  -10.282 9.11247 -2.59699
LeftShoulder1  -3.88251e-019 9.70628e-020 -3.87848e-018
LeftArm  -21.4396 53.8737 -52.3026
LeftForeArm  -44.3113 -72.6996 36.8545
LeftHand  0.300504 -9.20818 -1.90422
RightShoulder  7.34484 10.4234 34.8394
RightArm  16.4124 -44.2049 15.1156
RightForeArm  -20.3052 64.5588 -67.9255
RightHand  -0.419534 16.0534 -2.51886
LeftUpLeg  -21.8302 -0.0314372 -0.78328
LeftLeg  36.5251 -4.46097 8.2812
LeftFoot  0.66657 0.368804 -3.56006
LeftToes  5.79026e-011 9.70705e-012 -3.73859e-011
266
root  -7.97155 37.2529 42.893 1.5991 -18.4263 1.15209
RightUpLeg  -25.5793 4.03784 1.07968
RightLeg  42.5863 17.6545 0.974923
RightFoot  -17.6854 0.00816406 -0.96488
RightToes  -5.82073e-011 -3.18055e-015 -2.98177e-016
Spine  13.1397 0.438242 7.86096
Spine1  -6.00396 1.83256 -4.38781
HEad  -13.1596 8.9108 -2.78439
LeftShoulder1  -3.88251e-019 9.70628e-020 -3.87848e-018
LeftArm  -18.368 46.8492 -45.6989
LeftForeArm  -43.9165 -73.3329 38.8917
LeftHand  -0.955595 -10.3598 6.62024
RightShoulder  7.59047 10.4768 35.9681
RightArm  11.7216 -32.6658 17.9373
RightForeArm  -24.957 64.4652 -64.8708
RightHand  -2.07093 13.4949 -12.6932
LeftUpLeg  -19.5672 -2.76046 -0.845609
LeftLeg  39.8021 -2.86092 10.7238
LeftFoot  -18.3088 -0.347248 -7.46623
LeftToes  5.79026e-011 9.70705e-012 -3.73859e-011
267
root  -7.84845 35.4446 42.6071 -0.659095 -18.6726 2.03626
RightUpLeg  -30.097 2.19405 0.714424
RightLeg  55.2057 16.3547 -0.00440799
RightFoot  -25.4103 -0.172784 -2.50351
RightToes  -5.82073e-011 -3.18055e-015 -2.98177e-016
Spine  16.9212 -0.203069 5.70398
Spine1  -6.49692 1.05003 -3.01575
HEad  -21.6921 8.74876 -3.98312
LeftShoulder1  -3.88251e-019 9.70628e-020 -3.87848e-018
LeftArm  -21.0625 39.4937 -44.7258
LeftForeArm  -24.3047 -65.9733 24.6724
LeftHand  -3.91527 -13.2426 25.0413
RightShoulder  7.53448 10.4857 35.6579
RightArm  5.9508 -22.8006 23.8045
RightForeArm  -23.8434 59.5868 -46.9044
RightHand  -5.12337 10.7089 -35.2212
LeftUpLeg  -22.0707 -2.12625 -2.00604
LeftLeg  49.67 -3.9345 13.3859
LeftFoot  -28.7778 -1.15795 -7.92563
LeftToes  5.79026e-011 9.70705e-012 -3.73859e-011
